<svg xmlns="http://www.w3.org/2000/svg" width="1200" height="630" viewBox="0 0 1200 630" fill="none">
  <defs>
    <linearGradient id="bg" x1="90" y1="50" x2="1110" y2="580" gradientUnits="userSpaceOnUse">
      <stop stop-color="#020617"/>
      <stop offset="0.45" stop-color="#0F172A"/>
      <stop offset="1" stop-color="#1D4ED8"/>
    </linearGradient>
    <linearGradient id="ring" x1="160" y1="90" x2="1020" y2="540" gradientUnits="userSpaceOnUse">
      <stop stop-color="#93C5FD"/>
      <stop offset="1" stop-color="#38BDF8"/>
    </linearGradient>
  </defs>
  <rect width="1200" height="630" rx="36" fill="url(#bg)"/>
  <rect x="54" y="54" width="1092" height="522" rx="28" fill="#0F172AB8" stroke="#94A3B83D"/>
  <rect x="94" y="94" width="180" height="52" rx="26" fill="#60A5FA2E"/>
  <text x="184" y="127" fill="#BFDBFE" font-family="Arial, Helvetica, sans-serif" font-size="24" font-weight="700" letter-spacing="3">PORTFOLIO</text>
  <text x="100" y="250" fill="#F8FAFC" font-family="Arial, Helvetica, sans-serif" font-size="72" font-weight="700">Mohit Pandya</text>
  <text x="100" y="312" fill="#CBD5E1" font-family="Arial, Helvetica, sans-serif" font-size="32" font-weight="500">Full Stack Developer and AI Engineer</text>
  <text x="100" y="388" fill="#E2E8F0" font-family="Arial, Helvetica, sans-serif" font-size="24">
    <tspan x="100" dy="0">Building polished websites, scalable backend systems,</tspan>
    <tspan x="100" dy="34">and intelligent digital products.</tspan>
  </text>
  <circle cx="936" cy="264" r="112" fill="#DBEAFE" fill-opacity="0.96"/>
  <path d="M780 486C780 402.605 847.605 335 931 335H941C1024.39 335 1092 402.605 1092 486V508H780V486Z" fill="#DBEAFE" fill-opacity="0.96"/>
  <circle cx="936" cy="316" r="182" stroke="url(#ring)" stroke-width="8" stroke-opacity="0.7"/>
  <text x="100" y="528" fill="#93C5FD" font-family="Arial, Helvetica, sans-serif" font-size="24">portfolioo-five-drab.vercel.app</text>
  <text x="1034" y="528" fill="#F8FAFC" font-family="Arial, Helvetica, sans-serif" font-size="24" text-anchor="end">@Spixet</text>
</svg>

