<svg xmlns="http://www.w3.org/2000/svg" width="1200" height="630" viewBox="0 0 1200 630" fill="none">
  <defs>
    <linearGradient id="heroBg" x1="110" y1="70" x2="1090" y2="545" gradientUnits="userSpaceOnUse">
      <stop stop-color="#223046"/>
      <stop offset="1" stop-color="#2B364A"/>
    </linearGradient>
    <linearGradient id="avatarCore" x1="760" y1="214" x2="1010" y2="458" gradientUnits="userSpaceOnUse">
      <stop stop-color="#1B2C70"/>
      <stop offset="1" stop-color="#37B5F7"/>
    </linearGradient>
    <linearGradient id="buttonFill" x1="86" y1="478" x2="268" y2="534" gradientUnits="userSpaceOnUse">
      <stop stop-color="#28ACEA"/>
      <stop offset="1" stop-color="#1A9BD9"/>
    </linearGradient>
  </defs>

  <rect width="1200" height="630" fill="#0F1624"/>
  <rect width="1200" height="58" fill="#151F2D"/>
  <rect y="58" width="1200" height="572" fill="url(#heroBg)"/>

  <text x="86" y="36" fill="#35B8F7" font-family="Arial, Helvetica, sans-serif" font-size="26" font-weight="700">Mohit Pandya</text>

  <text x="725" y="33" fill="#35B8F7" font-family="Arial, Helvetica, sans-serif" font-size="18" font-weight="500">Home</text>
  <text x="808" y="33" fill="#E2E8F0" font-family="Arial, Helvetica, sans-serif" font-size="18" font-weight="500">About</text>
  <text x="885" y="33" fill="#E2E8F0" font-family="Arial, Helvetica, sans-serif" font-size="18" font-weight="500">Projects</text>
  <text x="981" y="33" fill="#E2E8F0" font-family="Arial, Helvetica, sans-serif" font-size="18" font-weight="500">Blog</text>
  <text x="1046" y="33" fill="#E2E8F0" font-family="Arial, Helvetica, sans-serif" font-size="18" font-weight="500">Contact</text>
  <rect x="726" y="42" width="56" height="2.5" rx="1.25" fill="#35B8F7"/>

  <circle cx="1130" cy="29" r="7" stroke="#E2E8F0" stroke-width="2"/>
  <path d="M1130 14V19" stroke="#E2E8F0" stroke-width="2" stroke-linecap="round"/>
  <path d="M1130 39V44" stroke="#E2E8F0" stroke-width="2" stroke-linecap="round"/>
  <path d="M1115 29H1120" stroke="#E2E8F0" stroke-width="2" stroke-linecap="round"/>
  <path d="M1140 29H1145" stroke="#E2E8F0" stroke-width="2" stroke-linecap="round"/>
  <path d="M1119 18L1122 21" stroke="#E2E8F0" stroke-width="2" stroke-linecap="round"/>
  <path d="M1138 37L1141 40" stroke="#E2E8F0" stroke-width="2" stroke-linecap="round"/>
  <path d="M1119 40L1122 37" stroke="#E2E8F0" stroke-width="2" stroke-linecap="round"/>
  <path d="M1138 21L1141 18" stroke="#E2E8F0" stroke-width="2" stroke-linecap="round"/>

  <text x="86" y="182" fill="#35B8F7" font-family="Arial, Helvetica, sans-serif" font-size="17" font-weight="700" letter-spacing="0.8">FULL STACK DEVELOPER SPECIALIZING IN INTELLIGENT INTERFACES</text>

  <text x="86" y="274" fill="#F8FAFC" font-family="Arial, Helvetica, sans-serif" font-size="66" font-weight="800">I build amazing</text>
  <text x="86" y="344" fill="#35B8F7" font-family="Arial, Helvetica, sans-serif" font-size="66" font-weight="800">experiences</text>

  <text x="86" y="406" fill="#AEB7C6" font-family="Arial, Helvetica, sans-serif" font-size="22" font-weight="500">
    <tspan x="86" dy="0">Hello! I&apos;m Mohit Pandya, a developer passionate about creating</tspan>
    <tspan x="86" dy="34">intelligent systems, visually refined interfaces, and real-world</tspan>
    <tspan x="86" dy="34">applications.</tspan>
  </text>

  <rect x="86" y="490" width="182" height="56" rx="10" fill="url(#buttonFill)"/>
  <text x="177" y="524" text-anchor="middle" fill="#F8FAFC" font-family="Arial, Helvetica, sans-serif" font-size="20" font-weight="700">View Projects</text>
  <text x="237" y="524" fill="#F8FAFC" font-family="Arial, Helvetica, sans-serif" font-size="28" font-weight="700">&#8594;</text>

  <rect x="286" y="490" width="162" height="56" rx="10" fill="none" stroke="#4A5568"/>
  <text x="367" y="524" text-anchor="middle" fill="#35B8F7" font-family="Arial, Helvetica, sans-serif" font-size="20" font-weight="700">Get In Touch</text>

  <g opacity="0.82">
    <path d="M90 585C82 585 76 579 76 571V556C76 548 82 542 90 542H106C114 542 120 548 120 556V571C120 579 114 585 106 585" stroke="#AEB7C6" stroke-width="3" stroke-linecap="round"/>
    <circle cx="142" cy="557" r="8" stroke="#AEB7C6" stroke-width="3"/>
    <path d="M136 570V586" stroke="#AEB7C6" stroke-width="3" stroke-linecap="round"/>
    <path d="M148 570V586" stroke="#AEB7C6" stroke-width="3" stroke-linecap="round"/>
    <path d="M136 574H148" stroke="#AEB7C6" stroke-width="3" stroke-linecap="round"/>
    <circle cx="208" cy="564" r="12" stroke="#AEB7C6" stroke-width="3"/>
    <path d="M196 579C199 583 203 586 208 586C213 586 217 583 220 579" stroke="#AEB7C6" stroke-width="3" stroke-linecap="round"/>
  </g>

  <g transform="translate(828 334)">
    <circle cx="0" cy="0" r="150" stroke="#0D4E78" stroke-width="24" opacity="0.72"/>
    <circle cx="0" cy="0" r="108" stroke="#4F5E6F" stroke-width="18" opacity="0.42"/>
    <circle cx="0" cy="0" r="92" fill="url(#avatarCore)"/>
    <circle cx="0" cy="0" r="76" stroke="#8EB7F5" stroke-width="4" opacity="0.92"/>
    <rect x="-34" y="-116" width="68" height="20" rx="10" fill="#1A2232" opacity="0.92"/>
    <text x="0" y="-101" text-anchor="middle" fill="#F8FAFC" font-family="Arial, Helvetica, sans-serif" font-size="9" font-weight="700">MOHIT PANDYA</text>
    <circle cx="0" cy="-22" r="31" fill="#DBEAFE" opacity="0.92"/>
    <path d="M-70 74C-70 35 -38 3 1 3H19C58 3 90 35 90 74V92H-70V74Z" fill="#DBEAFE" opacity="0.92"/>
  </g>

  <circle cx="640" cy="603" r="21" fill="#1188C6"/>
  <circle cx="640" cy="603" r="7" fill="#3F5265" stroke="#111827" stroke-width="1.5"/>
</svg>
