<svg xmlns="http://www.w3.org/2000/svg" viewBox="0 0 24 24" width="24" height="24">
  <rect width="20" height="20" x="2" y="2" fill="#F7DF1E" rx="2"/>
  <path d="M9.5,17.5 C10.252,17.5 10.823,17.186 11.262,16.563 L10.393,15.978 C10.139,16.33 9.912,16.5 9.5,16.5 C8.937,16.5 8.611,16.148 8.611,15.5 L8.611,11 L7.5,11 L7.5,15.5 C7.5,16.632 8.252,17.5 9.5,17.5 Z" fill="#000000"/>
  <path d="M15.41,17.5 C16.8,17.5 17.742,16.717 17.742,15.37 C17.742,14.212 17.047,13.69 16.028,13.272 L15.634,13.101 C15.038,12.842 14.763,12.667 14.763,12.235 C14.763,11.88 15.038,11.605 15.476,11.605 C15.904,11.605 16.19,11.794 16.465,12.235 L17.292,11.637 C16.869,10.886 16.285,10.5 15.476,10.5 C14.32,10.5 13.547,11.273 13.547,12.267 C13.547,13.398 14.241,13.943 15.123,14.307 L15.518,14.478 C16.146,14.748 16.517,14.923 16.517,15.402 C16.517,15.82 16.16,16.127 15.55,16.127 C14.815,16.127 14.426,15.778 14.089,15.274 L13.231,15.82 C13.67,16.707 14.448,17.5 15.41,17.5 Z" fill="#000000"/>
</svg> 