<svg xmlns="http://www.w3.org/2000/svg" viewBox="0 0 24 24" width="24" height="24">
  <circle cx="12" cy="12" r="10" fill="#000000"/>
  <path d="M 16.81 15.09 L 12.93 9.58 L 9.58 9.58 L 14.91 17.31 C 14.97 17.4 15.07 17.45 15.17 17.45 L 16.56 17.45 C 16.77 17.45 16.91 17.22 16.81 17.04 L 16.81 15.09 Z M 17.41 9.82 C 17.41 9.71 17.32 9.62 17.21 9.62 L 16.11 9.62 C 16 9.62 15.91 9.71 15.91 9.82 L 15.91 16.1 L 17.41 18.18 L 17.41 9.82 Z M 9.72 17.31 L 7.11 13.67 L 12.45 6.47 C 12.55 6.34 12.7 6.27 12.86 6.27 L 14.19 6.27 C 14.4 6.27 14.54 6.5 14.43 6.68 L 9.72 13.82 L 9.72 17.31 Z" fill="#FFFFFF"/>
</svg> 