<svg xmlns="http://www.w3.org/2000/svg" viewBox="0 0 24 24" width="24" height="24">
  <path d="M12,1.85c-0.27,0-0.53,0.07-0.76,0.2L3.25,6.5C2.79,6.77,2.5,7.27,2.5,7.79v8.42c0,0.53,0.29,1.03,0.75,1.29l7.99,4.45
    c0.23,0.13,0.49,0.2,0.76,0.2c0.27,0,0.53-0.07,0.76-0.2l7.99-4.45c0.47-0.26,0.75-0.76,0.75-1.29V7.79c0-0.53-0.29-1.03-0.75-1.29
    l-7.99-4.45C12.53,1.92,12.27,1.85,12,1.85z" fill="#83CD29"/>
  <path d="M12,4c-0.14,0-0.27,0.04-0.39,0.1L7.5,6.5C7.2,6.67,7,7.01,7,7.37v4.76c0,0.36,0.2,0.7,0.5,0.87l4.11,2.4
    c0.12,0.06,0.25,0.1,0.39,0.1c0.14,0,0.27-0.04,0.39-0.1l4.11-2.4C16.8,12.83,17,12.49,17,12.13V7.37c0-0.36-0.2-0.7-0.5-0.87
    l-4.11-2.4C12.27,4.04,12.14,4,12,4z" fill="#FFFFFF"/>
</svg> 