<svg xmlns="http://www.w3.org/2000/svg" viewBox="0 0 24 24" width="24" height="24">
  <path d="M11.751,11.882H9.252V9.651l3.36-0.005c0.549,0,0.997-0.448,0.997-0.997V5.929c0-0.549-0.448-0.997-0.997-0.997
    c-0.55,0-1.702,0-2.372,0c-3.243,0-3.243,2.438-3.243,2.438L6.993,11.53h4.758V12.3H6.254c0,0-2.998-0.15-2.998,4.007
    c0,4.158,2.624,4.011,2.624,4.011h1.561v-1.93c0,0-0.08-1.931,1.926-1.931H13.7c0,0,1.698,0.014,1.698-1.623v-2.884
    C15.399,11.951,14.426,11.882,11.751,11.882z M9.198,5.929c0.304,0,0.55,0.246,0.55,0.55c0,0.305-0.246,0.55-0.55,0.55
    c-0.304,0-0.55-0.245-0.55-0.55C8.648,6.176,8.894,5.929,9.198,5.929z" fill="#3776AB"/>
  <path d="M17.747,14.773c0,0,0.001-1.93-1.926-1.93h-4.323c0,0-2.169,0.008-2.169,2.073v3.054c0,0,0.059,1.821,3.047,1.821
    c0,0,1.653,0,1.653,0v-0.799h-3.361c0,0-0.997,0.014-0.997-0.997v-1.783h4.677c0,0,2.685,0.008,2.685-2.241
    c0,0,0.068-1.395,0.069-1.43h-1.355V14.773z M14.802,18.076c-0.304,0-0.55-0.246-0.55-0.55c0-0.304,0.246-0.55,0.55-0.55
    c0.304,0,0.55,0.246,0.55,0.55C15.352,17.83,15.106,18.076,14.802,18.076z" fill="#FFD43B"/>
</svg> 