<svg xmlns="http://www.w3.org/2000/svg" viewBox="0 0 800 400">
  <!-- Background -->
  <defs>
    <linearGradient id="grad" x1="0%" y1="0%" x2="100%" y2="100%">
      <stop offset="0%" stop-color="#8B5CF6" />
      <stop offset="100%" stop-color="#6D28D9" />
    </linearGradient>
    <filter id="shadow" x="-20%" y="-20%" width="140%" height="140%">
      <feGaussianBlur stdDeviation="10" />
      <feOffset dx="5" dy="5" />
      <feComposite operator="out" in="SourceGraphic" />
    </filter>
  </defs>
  
  <!-- Main Background -->
  <rect width="800" height="400" fill="url(#grad)" rx="15" ry="15"/>
  
  <!-- Pattern -->
  <g fill="#FFFFFF" opacity="0.1">
    <circle cx="40" cy="40" r="12.13685931566613" /><circle cx="40" cy="120" r="16.868119477565177" /><circle cx="40" cy="200" r="12.056753862528307" /><circle cx="40" cy="280" r="19.433975699630956" /><circle cx="40" cy="360" r="12.004799798858746" /><circle cx="120" cy="40" r="10.433465000533479" /><circle cx="120" cy="120" r="7.427409903762099" /><circle cx="120" cy="200" r="13.332532615567201" /><circle cx="120" cy="280" r="12.869447700829278" /><circle cx="120" cy="360" r="18.634501477607486" /><circle cx="200" cy="40" r="11.189351133298059" /><circle cx="200" cy="120" r="18.626990459236076" /><circle cx="200" cy="200" r="9.644895445955711" /><circle cx="200" cy="280" r="16.22401135289989" /><circle cx="200" cy="360" r="8.336345759909182" /><circle cx="280" cy="40" r="15.851506429947804" /><circle cx="280" cy="120" r="7.708531655255491" /><circle cx="280" cy="200" r="11.982694641646397" /><circle cx="280" cy="280" r="5.287454784571397" /><circle cx="280" cy="360" r="16.848793732609895" /><circle cx="360" cy="40" r="8.237415507606944" /><circle cx="360" cy="120" r="8.534811296303568" /><circle cx="360" cy="200" r="10.110710310981966" /><circle cx="360" cy="280" r="12.769552953196728" /><circle cx="360" cy="360" r="10.612920311429995" /><circle cx="440" cy="40" r="14.704456619007775" /><circle cx="440" cy="120" r="18.366495582464232" /><circle cx="440" cy="200" r="8.115946273398523" /><circle cx="440" cy="280" r="14.448808024920933" /><circle cx="440" cy="360" r="18.787817650883863" /><circle cx="520" cy="40" r="18.466054833543645" /><circle cx="520" cy="120" r="13.718678837072872" /><circle cx="520" cy="200" r="7.691831641821288" /><circle cx="520" cy="280" r="10.47431509232341" /><circle cx="520" cy="360" r="19.867705496453446" /><circle cx="600" cy="40" r="17.39336749999357" /><circle cx="600" cy="120" r="14.976402254461744" /><circle cx="600" cy="200" r="15.379125686989498" /><circle cx="600" cy="280" r="19.27276714445165" /><circle cx="600" cy="360" r="14.1649810146179" /><circle cx="680" cy="40" r="15.280000124301855" /><circle cx="680" cy="120" r="17.754118293775704" /><circle cx="680" cy="200" r="11.160539015974448" /><circle cx="680" cy="280" r="15.193267074621012" /><circle cx="680" cy="360" r="8.73637970815498" /><circle cx="760" cy="40" r="11.182511418762555" /><circle cx="760" cy="120" r="9.16244876549958" /><circle cx="760" cy="200" r="7.694346928822267" /><circle cx="760" cy="280" r="11.61625522728571" /><circle cx="760" cy="360" r="19.12955821638455" />
  </g>
  
  <!-- Center Icon and Text -->
  <g transform="translate(400, 200)">
    <!-- Icon Background -->
    <circle cx="0" cy="-20" r="60" fill="#FFFFFF" opacity="0.2" />
    
    <!-- Icon -->
    <g transform="translate(-24, -44) scale(2)" fill="#FFFFFF" stroke="#FFFFFF">
      <path d="M10 4c0-1.1.9-2 2-2s2 .9 2 2-.9 2-2 2-2-.9-2-2zM17 14.1c0-.8-.3-1.6-.9-2.1l-2.5-2.5c-.1-.1-.2-.3-.2-.5v-1c0-.2.1-.5.3-.7.1-.1.3-.2.4-.3.2-.1.3-.2.4-.4.2-.1.3-.3.4-.5.1-.2.1-.4.1-.6 0-.2 0-.4-.1-.6 0-.2-.1-.4-.2-.5-.1-.2-.2-.3-.4-.5-.1-.1-.3-.2-.5-.3-.1-.1-.3-.2-.5-.2-.2-.1-.4-.1-.6-.1-.6 0-1.1.2-1.5.6-.4.4-.6.9-.6 1.5v3c0 .2-.1.5-.3.7L10 10.9c-.6.6-.9 1.3-.9 2.1 0 .3.1.6.2.9l1.3 2.8c.1.2.3.5.5.7.2.2.4.4.7.5.3.1.5.2.8.2 1.1 0 2-.9 2-2v-1.2c0-.3.1-.6.4-.8l1.8-1.5c.3-.2.8-.2 1.1 0 .7.5 1.1 1.4.9 2.1-.3 1-.8 1.9-1.5 2.6-.1.1-.1.3-.1.4v1.5c0 .7.2 1.2.6 1.7.4.4 1 .7 1.7.7h4.2c.5 0 1-.2 1.4-.5.4-.4.6-.8.6-1.3v-2c0-.8-.3-1.6-.9-2.1l-2.5-2.5z" fill="currentColor" opacity="0.8"/>
    </g>
    
    <!-- Project Title -->
    <text x="0" y="80" font-family="'Arial', sans-serif" font-size="32" font-weight="bold" fill="#FFFFFF" text-anchor="middle">AI Project</text>
  </g>
  
  <!-- Bottom Tag -->
  <g transform="translate(400, 360)">
    <rect x="-100" y="-20" width="200" height="40" rx="20" ry="20" fill="#FFFFFF" opacity="0.2"/>
    <text x="0" y="5" font-family="'Arial', sans-serif" font-size="16" font-weight="bold" fill="#FFFFFF" text-anchor="middle">VIEW PROJECT</text>
  </g>
</svg>