<svg xmlns="http://www.w3.org/2000/svg" viewBox="0 0 800 400">
  <!-- Background -->
  <defs>
    <linearGradient id="grad" x1="0%" y1="0%" x2="100%" y2="100%">
      <stop offset="0%" stop-color="#6366F1" />
      <stop offset="100%" stop-color="#4F46E5" />
    </linearGradient>
    <filter id="shadow" x="-20%" y="-20%" width="140%" height="140%">
      <feGaussianBlur stdDeviation="10" />
      <feOffset dx="5" dy="5" />
      <feComposite operator="out" in="SourceGraphic" />
    </filter>
  </defs>
  
  <!-- Main Background -->
  <rect width="800" height="400" fill="url(#grad)" rx="15" ry="15"/>
  
  <!-- Pattern -->
  <g fill="#FFFFFF" opacity="0.1">
    <circle cx="40" cy="40" r="19.830981600046115" /><circle cx="40" cy="120" r="17.750480167488604" /><circle cx="40" cy="200" r="8.439260932185096" /><circle cx="40" cy="280" r="19.631094522418934" /><circle cx="40" cy="360" r="18.10393591864335" /><circle cx="120" cy="40" r="11.13843257654242" /><circle cx="120" cy="120" r="12.166499140542715" /><circle cx="120" cy="200" r="16.789311513245682" /><circle cx="120" cy="280" r="5.285526008670173" /><circle cx="120" cy="360" r="11.278374764168792" /><circle cx="200" cy="40" r="19.2215149661747" /><circle cx="200" cy="120" r="13.688984014003786" /><circle cx="200" cy="200" r="7.492933211384121" /><circle cx="200" cy="280" r="19.341049711229076" /><circle cx="200" cy="360" r="5.186956879764607" /><circle cx="280" cy="40" r="13.627562034956934" /><circle cx="280" cy="120" r="8.227946733365112" /><circle cx="280" cy="200" r="10.680619661129576" /><circle cx="280" cy="280" r="11.176051338069682" /><circle cx="280" cy="360" r="18.809503108919635" /><circle cx="360" cy="40" r="19.141245099494455" /><circle cx="360" cy="120" r="12.299487709970123" /><circle cx="360" cy="200" r="16.234062666386606" /><circle cx="360" cy="280" r="16.626557148546627" /><circle cx="360" cy="360" r="8.646091725167603" /><circle cx="440" cy="40" r="10.534319249978086" /><circle cx="440" cy="120" r="14.021649316614315" /><circle cx="440" cy="200" r="19.240003595223797" /><circle cx="440" cy="280" r="17.502394464982235" /><circle cx="440" cy="360" r="8.51075252773372" /><circle cx="520" cy="40" r="9.177986974634953" /><circle cx="520" cy="120" r="12.09250096470759" /><circle cx="520" cy="200" r="9.102378731639565" /><circle cx="520" cy="280" r="13.802735795280038" /><circle cx="520" cy="360" r="10.895720407112162" /><circle cx="600" cy="40" r="16.126091317100634" /><circle cx="600" cy="120" r="15.888928850175311" /><circle cx="600" cy="200" r="7.146082152013319" /><circle cx="600" cy="280" r="11.461419969710443" /><circle cx="600" cy="360" r="14.615858674359117" /><circle cx="680" cy="40" r="19.979887385478463" /><circle cx="680" cy="120" r="7.66368293265892" /><circle cx="680" cy="200" r="9.209107605502508" /><circle cx="680" cy="280" r="7.72099602603895" /><circle cx="680" cy="360" r="12.911257622501747" /><circle cx="760" cy="40" r="5.559050373217346" /><circle cx="760" cy="120" r="8.376251545736155" /><circle cx="760" cy="200" r="8.759057709451893" /><circle cx="760" cy="280" r="13.13334456272862" /><circle cx="760" cy="360" r="7.036222052935361" />
  </g>
  
  <!-- Center Icon and Text -->
  <g transform="translate(400, 200)">
    <!-- Icon Background -->
    <circle cx="0" cy="-20" r="60" fill="#FFFFFF" opacity="0.2" />
    
    <!-- Icon -->
    <g transform="translate(-24, -44) scale(2)" fill="#FFFFFF" stroke="#FFFFFF">
      <path d="M12 18v-6m0 0V6m0 6h6m-6 0H6" fill="none" stroke="currentColor" stroke-width="1.5" stroke-linecap="round"/>
    </g>
    
    <!-- Project Title -->
    <text x="0" y="80" font-family="'Arial', sans-serif" font-size="32" font-weight="bold" fill="#FFFFFF" text-anchor="middle">Project</text>
  </g>
  
  <!-- Bottom Tag -->
  <g transform="translate(400, 360)">
    <rect x="-100" y="-20" width="200" height="40" rx="20" ry="20" fill="#FFFFFF" opacity="0.2"/>
    <text x="0" y="5" font-family="'Arial', sans-serif" font-size="16" font-weight="bold" fill="#FFFFFF" text-anchor="middle">VIEW PROJECT</text>
  </g>
</svg>