<svg xmlns="http://www.w3.org/2000/svg" viewBox="0 0 800 400">
  <!-- Background -->
  <defs>
    <linearGradient id="grad" x1="0%" y1="0%" x2="100%" y2="100%">
      <stop offset="0%" stop-color="#10B981" />
      <stop offset="100%" stop-color="#047857" />
    </linearGradient>
    <filter id="shadow" x="-20%" y="-20%" width="140%" height="140%">
      <feGaussianBlur stdDeviation="10" />
      <feOffset dx="5" dy="5" />
      <feComposite operator="out" in="SourceGraphic" />
    </filter>
  </defs>
  
  <!-- Main Background -->
  <rect width="800" height="400" fill="url(#grad)" rx="15" ry="15"/>
  
  <!-- Pattern -->
  <g fill="#FFFFFF" opacity="0.1">
    <circle cx="40" cy="40" r="5.560589273796021" /><circle cx="40" cy="120" r="9.654944251477378" /><circle cx="40" cy="200" r="14.445338080366222" /><circle cx="40" cy="280" r="10.658255025001129" /><circle cx="40" cy="360" r="14.035930081143489" /><circle cx="120" cy="40" r="6.789920135667529" /><circle cx="120" cy="120" r="5.328964897121167" /><circle cx="120" cy="200" r="5.817571442304236" /><circle cx="120" cy="280" r="9.279829720424672" /><circle cx="120" cy="360" r="17.297879306917626" /><circle cx="200" cy="40" r="10.31440870621229" /><circle cx="200" cy="120" r="17.03753281942599" /><circle cx="200" cy="200" r="16.675477590218556" /><circle cx="200" cy="280" r="16.296203362177327" /><circle cx="200" cy="360" r="18.239376366634982" /><circle cx="280" cy="40" r="10.96695888501306" /><circle cx="280" cy="120" r="18.331913480159958" /><circle cx="280" cy="200" r="15.359208368964717" /><circle cx="280" cy="280" r="8.224790200841085" /><circle cx="280" cy="360" r="8.623150694642115" /><circle cx="360" cy="40" r="15.224372702425509" /><circle cx="360" cy="120" r="15.997366589307685" /><circle cx="360" cy="200" r="9.035544961698402" /><circle cx="360" cy="280" r="15.712221183868893" /><circle cx="360" cy="360" r="18.66015453254375" /><circle cx="440" cy="40" r="11.634403197956674" /><circle cx="440" cy="120" r="16.20678452325985" /><circle cx="440" cy="200" r="16.491452528196902" /><circle cx="440" cy="280" r="19.162571549741894" /><circle cx="440" cy="360" r="14.246717159757896" /><circle cx="520" cy="40" r="19.23286250727476" /><circle cx="520" cy="120" r="10.755165907012405" /><circle cx="520" cy="200" r="9.013129766164415" /><circle cx="520" cy="280" r="9.800119639795824" /><circle cx="520" cy="360" r="11.25969379629112" /><circle cx="600" cy="40" r="16.607398966746317" /><circle cx="600" cy="120" r="6.241197096322479" /><circle cx="600" cy="200" r="11.343525793322485" /><circle cx="600" cy="280" r="12.936844216415935" /><circle cx="600" cy="360" r="11.125173892913077" /><circle cx="680" cy="40" r="13.789083021630251" /><circle cx="680" cy="120" r="12.52685873992445" /><circle cx="680" cy="200" r="9.125511609833802" /><circle cx="680" cy="280" r="19.155598074740233" /><circle cx="680" cy="360" r="19.13170506349333" /><circle cx="760" cy="40" r="13.054190048510701" /><circle cx="760" cy="120" r="8.2544320436681" /><circle cx="760" cy="200" r="5.056717531043962" /><circle cx="760" cy="280" r="7.454040860380542" /><circle cx="760" cy="360" r="17.28365714216404" />
  </g>
  
  <!-- Center Icon and Text -->
  <g transform="translate(400, 200)">
    <!-- Icon Background -->
    <circle cx="0" cy="-20" r="60" fill="#FFFFFF" opacity="0.2" />
    
    <!-- Icon -->
    <g transform="translate(-24, -44) scale(2)" fill="#FFFFFF" stroke="#FFFFFF">
      <path d="M17 10L15 12M15 8L17 10M7 10L9 8M9 12L7 10M12 12L12 14M12 6L12 8M3.54686 5.6184C4.61607 3.99751 6.79047 3.00519 8.99986 3.00519C9.95293 3.00519 10.3294 3.00519 11.8542 3.5C14.5129 4.40384 16.5961 6.48702 17.5 9.14583C17.9948 10.6706 17.9948 11.047 17.9948 12.0001C17.9948 14.2095 17.0025 16.3839 15.3816 17.4531C14.5553 18.0122 13.5791 18.3437 12.5664 18.4166C12.3825 18.4276 12.1923 18.4269 12 18.4144C11.8077 18.4269 11.6175 18.4276 11.4336 18.4166C10.4209 18.3437 9.44473 18.0122 8.6184 17.4531C6.99751 16.3839 6.00519 14.2095 6.00519 12.0001C6.00519 11.047 6.00519 10.6706 6.5 9.14583C6.71841 8.50447 7.00455 7.89797 7.35143 7.34185" fill="none" stroke="currentColor" stroke-width="1.5" stroke-linecap="round"/>
    </g>
    
    <!-- Project Title -->
    <text x="0" y="80" font-family="'Arial', sans-serif" font-size="32" font-weight="bold" fill="#FFFFFF" text-anchor="middle">IoT Project</text>
  </g>
  
  <!-- Bottom Tag -->
  <g transform="translate(400, 360)">
    <rect x="-100" y="-20" width="200" height="40" rx="20" ry="20" fill="#FFFFFF" opacity="0.2"/>
    <text x="0" y="5" font-family="'Arial', sans-serif" font-size="16" font-weight="bold" fill="#FFFFFF" text-anchor="middle">VIEW PROJECT</text>
  </g>
</svg>