<svg xmlns="http://www.w3.org/2000/svg" viewBox="0 0 800 400">
  <!-- Background -->
  <defs>
    <linearGradient id="grad" x1="0%" y1="0%" x2="100%" y2="100%">
      <stop offset="0%" stop-color="#38BDF8" />
      <stop offset="100%" stop-color="#0284C7" />
    </linearGradient>
    <filter id="shadow" x="-20%" y="-20%" width="140%" height="140%">
      <feGaussianBlur stdDeviation="10" />
      <feOffset dx="5" dy="5" />
      <feComposite operator="out" in="SourceGraphic" />
    </filter>
  </defs>
  
  <!-- Main Background -->
  <rect width="800" height="400" fill="url(#grad)" rx="15" ry="15"/>
  
  <!-- Pattern -->
  <g fill="#FFFFFF" opacity="0.1">
    <circle cx="40" cy="40" r="16.237823270915683" /><circle cx="40" cy="120" r="19.584593036195052" /><circle cx="40" cy="200" r="5.435812922623086" /><circle cx="40" cy="280" r="16.05719792080324" /><circle cx="40" cy="360" r="7.336328523955402" /><circle cx="120" cy="40" r="19.52728824121005" /><circle cx="120" cy="120" r="14.82431376075615" /><circle cx="120" cy="200" r="10.30203528393466" /><circle cx="120" cy="280" r="14.15158876663086" /><circle cx="120" cy="360" r="6.345079210508381" /><circle cx="200" cy="40" r="10.327739381777015" /><circle cx="200" cy="120" r="8.495239259772262" /><circle cx="200" cy="200" r="9.90005826753924" /><circle cx="200" cy="280" r="17.502272855596445" /><circle cx="200" cy="360" r="6.182270479551459" /><circle cx="280" cy="40" r="7.719445110573902" /><circle cx="280" cy="120" r="9.258263317698889" /><circle cx="280" cy="200" r="5.822748677874748" /><circle cx="280" cy="280" r="19.331616215838636" /><circle cx="280" cy="360" r="13.020976985387534" /><circle cx="360" cy="40" r="7.233408129055316" /><circle cx="360" cy="120" r="14.237479926343388" /><circle cx="360" cy="200" r="15.735926119470475" /><circle cx="360" cy="280" r="14.265626143230296" /><circle cx="360" cy="360" r="6.06916111296261" /><circle cx="440" cy="40" r="13.409615780277562" /><circle cx="440" cy="120" r="12.724529717314967" /><circle cx="440" cy="200" r="9.259049777540943" /><circle cx="440" cy="280" r="16.427020489114845" /><circle cx="440" cy="360" r="7.29286075975084" /><circle cx="520" cy="40" r="5.010104580085147" /><circle cx="520" cy="120" r="10.152443839836202" /><circle cx="520" cy="200" r="17.295497400315206" /><circle cx="520" cy="280" r="17.695795362197067" /><circle cx="520" cy="360" r="12.482496733663078" /><circle cx="600" cy="40" r="18.468562830879513" /><circle cx="600" cy="120" r="11.10833933333593" /><circle cx="600" cy="200" r="8.698737081802602" /><circle cx="600" cy="280" r="15.524126099272747" /><circle cx="600" cy="360" r="13.3140218351865" /><circle cx="680" cy="40" r="12.940584528176547" /><circle cx="680" cy="120" r="12.667106152941738" /><circle cx="680" cy="200" r="8.449504424556068" /><circle cx="680" cy="280" r="19.09332181838652" /><circle cx="680" cy="360" r="15.29114317601978" /><circle cx="760" cy="40" r="8.04975644097683" /><circle cx="760" cy="120" r="11.162537838178196" /><circle cx="760" cy="200" r="7.994415337898038" /><circle cx="760" cy="280" r="19.241976727379623" /><circle cx="760" cy="360" r="15.611549241441908" />
  </g>
  
  <!-- Center Icon and Text -->
  <g transform="translate(400, 200)">
    <!-- Icon Background -->
    <circle cx="0" cy="-20" r="60" fill="#FFFFFF" opacity="0.2" />
    
    <!-- Icon -->
    <g transform="translate(-24, -44) scale(2)" fill="#FFFFFF" stroke="#FFFFFF">
      <path d="M8 16.5a4.5 4.5 0 101.06-2.9A5.5 5.5 0 0116.5 8a.75.75 0 001.5 0A7 7 0 0015 1.5a.75.75 0 000 1.5 5.5 5.5 0 014.244 9.046A4.493 4.493 0 0016.5 10a.75.75 0 000 1.5c1.202 0 2.296.482 3.096 1.265A4.497 4.497 0 0121 16.5a4.5 4.5 0 11-9 0z" fill="currentColor" opacity="0.8"/>
    </g>
    
    <!-- Project Title -->
    <text x="0" y="80" font-family="'Arial', sans-serif" font-size="32" font-weight="bold" fill="#FFFFFF" text-anchor="middle">Weather Project</text>
  </g>
  
  <!-- Bottom Tag -->
  <g transform="translate(400, 360)">
    <rect x="-100" y="-20" width="200" height="40" rx="20" ry="20" fill="#FFFFFF" opacity="0.2"/>
    <text x="0" y="5" font-family="'Arial', sans-serif" font-size="16" font-weight="bold" fill="#FFFFFF" text-anchor="middle">VIEW PROJECT</text>
  </g>
</svg>